<?xml version="1.0" encoding="UTF-8"?>
<svg width="100px" height="100px" viewBox="0 0 100 100" version="1.1" xmlns="http://www.w3.org/2000/svg">
    <g fill="#FFFFFF" fill-opacity="0.7" transform="translate(50, 50) rotate(-15) translate(-50, -50)">
        <path d="M30,45 C30,35 40,30 50,30 C60,30 70,35 70,45 L75,50 L70,55 C70,65 60,70 50,70 C40,70 30,65 30,55 L25,50 L30,45 Z"/>
        <path d="M45,35 L55,35 L60,25 L40,25 L45,35 Z"/>
        <path d="M40,60 L60,60 L65,75 L35,75 L40,60 Z"/>
    </g>
</svg> 